<?xml version="1.0" encoding="iso-8859-1"?>
<!-- Generator: Adobe Illustrator 19.0.0, SVG Export Plug-In . SVG Version: 6.00 Build 0)  -->
<svg version="1.1" id="Layer_1" xmlns="http://www.w3.org/2000/svg" xmlns:xlink="http://www.w3.org/1999/xlink" x="0px" y="0px"
	 viewBox="0 0 512.004 512.004" style="enable-background:new 0 0 512.004 512.004;" xml:space="preserve">
<path style="fill:#956EC4;" d="M432.607,176.887h4.371c9.769,0,17.689-7.92,17.689-17.689c0-9.769-7.919-17.689-17.689-17.689
	H64.657c-9.769,0-17.689,7.92-17.689,17.689c0,9.769,7.92,17.689,17.689,17.689H82.16c-20.429,32.152-32.432,70.189-32.432,111.106
	c0,114.683,92.971,207.652,207.657,207.652c114.68,0,207.652-92.97,207.652-207.652
	C465.035,247.075,453.034,209.038,432.607,176.887z"/>
<path style="fill:#5A2479;" d="M436.978,176.887H64.655c-9.769,0-17.689-7.92-17.689-17.689l0,0c0-9.769,7.92-17.689,17.689-17.689
	h372.322c9.769,0,17.689,7.92,17.689,17.689l0,0C454.666,168.967,446.747,176.887,436.978,176.887z"/>
<g>
	<circle style="fill:#77DD00;" cx="117.949" cy="88.46" r="17.685"/>
	<circle style="fill:#77DD00;" cx="179.694" cy="26.532" r="26.532"/>
</g>
<path style="fill:#B77FD8;" d="M82.158,176.887c-20.429,32.152-32.432,70.189-32.432,111.106c0,58.346,24.145,110.99,62.895,148.714
	c-25.453-37.391-40.36-82.536-40.36-131.173c0-46,16.188-92.501,39.158-128.647"/>
<path style="fill:#6D2C92;" d="M432.607,176.887h-35.842c5.042,17.835,7.833,36.612,7.833,56.074
	c0,114.683-92.971,207.651-207.651,207.651c-39.064,0-75.477-10.988-106.687-29.749c37.803,51.331,98.483,84.78,167.125,84.78
	c114.68,0,207.651-92.97,207.651-207.651C465.035,247.075,453.034,209.038,432.607,176.887z"/>
<path style="fill:#77DD00;" d="M414.005,141.509c-8.65-34.165-39.599-57.79-76.451-57.79c-30.676,0-56.973,17.697-70.01,43.277
	c-11.257-6.191-23.992-10.023-37.747-10.023c-22.493,0-42.78,9.425-57.146,24.53l-74.773,0.006
	c20.759,0,37.588,16.827,37.588,37.586v3.391v107.944c0,14.607,11.845,26.452,26.455,26.452c14.608,0,26.455-11.846,26.455-26.452
	v-65.229c0-9.81,7.951-17.763,17.763-17.763c9.807,0,17.76,7.952,17.76,17.763l-0.189,5.713c0,14.611,11.844,26.455,26.455,26.455
	c14.608,0,26.455-11.844,26.455-26.455v-51.817c-0.213-2.282-1.21-15.311,8.365-26.249c3.921-4.479,8.386-9.676,12.229-11.338
	h116.792V141.509z"/>
<g>
	<circle style="fill:#FFA81E;" cx="137.337" cy="476.309" r="35.694"/>
	<circle style="fill:#FFA81E;" cx="363.707" cy="476.309" r="35.693"/>
</g>
<g>
</g>
<g>
</g>
<g>
</g>
<g>
</g>
<g>
</g>
<g>
</g>
<g>
</g>
<g>
</g>
<g>
</g>
<g>
</g>
<g>
</g>
<g>
</g>
<g>
</g>
<g>
</g>
<g>
</g>
</svg>
